<svg width="132" height="93" viewBox="0 0 132 93" fill="none" xmlns="http://www.w3.org/2000/svg">
<rect x="0.75" y="0.75" width="130.5" height="91.5" rx="1.25" fill="black" fill-opacity="0.2" stroke="url(#paint0_linear_195_130)" stroke-width="1.5"/>
<path d="M51.2744 30V17.1152H55.168L57.5059 25.9043L59.8174 17.1152H63.7197V30H61.3027V19.8574L58.7451 30H56.2402L53.6914 19.8574V30H51.2744ZM69.5718 23.5137L67.3306 23.1094C67.5826 22.207 68.0162 21.5391 68.6314 21.1055C69.2466 20.6719 70.1607 20.4551 71.3736 20.4551C72.4752 20.4551 73.2955 20.5869 73.8345 20.8506C74.3736 21.1084 74.7515 21.4395 74.9683 21.8438C75.191 22.2422 75.3023 22.9775 75.3023 24.0498L75.2759 26.9326C75.2759 27.7529 75.314 28.3594 75.3902 28.752C75.4722 29.1387 75.6216 29.5547 75.8384 30H73.3951C73.3306 29.8359 73.2515 29.5928 73.1578 29.2705C73.1168 29.124 73.0875 29.0273 73.0699 28.9805C72.648 29.3906 72.1968 29.6982 71.7164 29.9033C71.2359 30.1084 70.7232 30.2109 70.1783 30.2109C69.2173 30.2109 68.4586 29.9502 67.9019 29.4287C67.3511 28.9072 67.0757 28.248 67.0757 27.4512C67.0757 26.9238 67.2017 26.4551 67.4537 26.0449C67.7056 25.6289 68.0572 25.3125 68.5084 25.0957C68.9654 24.873 69.6216 24.6797 70.4771 24.5156C71.6314 24.2988 72.4312 24.0967 72.8765 23.9092V23.6631C72.8765 23.1885 72.7593 22.8516 72.525 22.6523C72.2906 22.4473 71.8482 22.3447 71.1978 22.3447C70.7584 22.3447 70.4156 22.4326 70.1695 22.6084C69.9234 22.7783 69.7242 23.0801 69.5718 23.5137ZM72.8765 25.5176C72.5601 25.623 72.0591 25.749 71.3736 25.8955C70.688 26.042 70.2398 26.1855 70.0289 26.3262C69.7066 26.5547 69.5455 26.8447 69.5455 27.1963C69.5455 27.542 69.6744 27.8408 69.9322 28.0928C70.19 28.3447 70.5181 28.4707 70.9166 28.4707C71.3619 28.4707 71.7867 28.3242 72.191 28.0312C72.4898 27.8086 72.6861 27.5361 72.7798 27.2139C72.8443 27.0029 72.8765 26.6016 72.8765 26.0098V25.5176ZM83.4659 20.666V22.6348H81.7784V26.3965C81.7784 27.1582 81.7931 27.6035 81.8224 27.7324C81.8575 27.8555 81.9308 27.958 82.0421 28.04C82.1593 28.1221 82.2999 28.1631 82.464 28.1631C82.6925 28.1631 83.0236 28.084 83.4571 27.9258L83.6681 29.8418C83.0939 30.0879 82.4435 30.2109 81.7169 30.2109C81.2716 30.2109 80.8702 30.1377 80.5128 29.9912C80.1554 29.8389 79.8917 29.6455 79.7218 29.4111C79.5577 29.1709 79.4435 28.8486 79.379 28.4443C79.3263 28.1572 79.2999 27.5771 79.2999 26.7041V22.6348H78.1661V20.666H79.2999V18.8115L81.7784 17.3701V20.666H83.4659ZM90.9001 20.666V22.6348H89.2126V26.3965C89.2126 27.1582 89.2272 27.6035 89.2565 27.7324C89.2917 27.8555 89.3649 27.958 89.4762 28.04C89.5934 28.1221 89.7341 28.1631 89.8981 28.1631C90.1266 28.1631 90.4577 28.084 90.8913 27.9258L91.1022 29.8418C90.528 30.0879 89.8776 30.2109 89.1511 30.2109C88.7057 30.2109 88.3044 30.1377 87.947 29.9912C87.5895 29.8389 87.3259 29.6455 87.1559 29.4111C86.9919 29.1709 86.8776 28.8486 86.8132 28.4443C86.7604 28.1572 86.7341 27.5771 86.7341 26.7041V22.6348H85.6003V20.666H86.7341V18.8115L89.2126 17.3701V20.666H90.9001ZM50.6504 71.8076L53.1816 71.5615C53.334 72.4111 53.6416 73.0352 54.1045 73.4336C54.5732 73.832 55.2031 74.0312 55.9941 74.0312C56.832 74.0312 57.4619 73.8555 57.8838 73.5039C58.3115 73.1465 58.5254 72.7305 58.5254 72.2559C58.5254 71.9512 58.4346 71.6934 58.2529 71.4824C58.0771 71.2656 57.7666 71.0781 57.3213 70.9199C57.0166 70.8145 56.3223 70.627 55.2383 70.3574C53.8438 70.0117 52.8652 69.5869 52.3027 69.083C51.5117 68.374 51.1162 67.5098 51.1162 66.4902C51.1162 65.834 51.3008 65.2217 51.6699 64.6533C52.0449 64.0791 52.5811 63.6426 53.2783 63.3438C53.9814 63.0449 54.8281 62.8955 55.8184 62.8955C57.4355 62.8955 58.6514 63.25 59.4658 63.959C60.2861 64.668 60.7168 65.6143 60.7578 66.7979L58.1562 66.9121C58.0449 66.25 57.8047 65.7754 57.4355 65.4883C57.0723 65.1953 56.5244 65.0488 55.792 65.0488C55.0361 65.0488 54.4443 65.2041 54.0166 65.5146C53.7412 65.7139 53.6035 65.9805 53.6035 66.3145C53.6035 66.6191 53.7324 66.8799 53.9902 67.0967C54.3184 67.3721 55.1152 67.6592 56.3809 67.958C57.6465 68.2568 58.5811 68.5674 59.1846 68.8896C59.7939 69.2061 60.2686 69.6426 60.6084 70.1992C60.9541 70.75 61.127 71.4326 61.127 72.2471C61.127 72.9854 60.9219 73.6768 60.5117 74.3213C60.1016 74.9658 59.5215 75.4463 58.7715 75.7627C58.0215 76.0732 57.0869 76.2285 55.9678 76.2285C54.3389 76.2285 53.0879 75.8535 52.2148 75.1035C51.3418 74.3477 50.8203 73.249 50.6504 71.8076ZM69.0181 66.666V68.6348H67.3306V72.3965C67.3306 73.1582 67.3453 73.6035 67.3746 73.7324C67.4097 73.8555 67.483 73.958 67.5943 74.04C67.7115 74.1221 67.8521 74.1631 68.0162 74.1631C68.2447 74.1631 68.5757 74.084 69.0093 73.9258L69.2203 75.8418C68.6461 76.0879 67.9957 76.2109 67.2691 76.2109C66.8238 76.2109 66.4224 76.1377 66.065 75.9912C65.7076 75.8389 65.4439 75.6455 65.274 75.4111C65.1099 75.1709 64.9957 74.8486 64.9312 74.4443C64.8785 74.1572 64.8521 73.5771 64.8521 72.7041V68.6348H63.7183V66.666H64.8521V64.8115L67.3306 63.3701V66.666H69.0181ZM74.0177 69.5137L71.7765 69.1094C72.0284 68.207 72.462 67.5391 73.0773 67.1055C73.6925 66.6719 74.6066 66.4551 75.8195 66.4551C76.921 66.4551 77.7413 66.5869 78.2804 66.8506C78.8195 67.1084 79.1974 67.4395 79.4142 67.8438C79.6368 68.2422 79.7482 68.9775 79.7482 70.0498L79.7218 72.9326C79.7218 73.7529 79.7599 74.3594 79.8361 74.752C79.9181 75.1387 80.0675 75.5547 80.2843 76H77.8409C77.7765 75.8359 77.6974 75.5928 77.6036 75.2705C77.5626 75.124 77.5333 75.0273 77.5157 74.9805C77.0939 75.3906 76.6427 75.6982 76.1622 75.9033C75.6818 76.1084 75.1691 76.2109 74.6241 76.2109C73.6632 76.2109 72.9044 75.9502 72.3478 75.4287C71.797 74.9072 71.5216 74.248 71.5216 73.4512C71.5216 72.9238 71.6476 72.4551 71.8995 72.0449C72.1515 71.6289 72.503 71.3125 72.9542 71.0957C73.4113 70.873 74.0675 70.6797 74.923 70.5156C76.0773 70.2988 76.8771 70.0967 77.3224 69.9092V69.6631C77.3224 69.1885 77.2052 68.8516 76.9708 68.6523C76.7364 68.4473 76.2941 68.3447 75.6437 68.3447C75.2042 68.3447 74.8614 68.4326 74.6154 68.6084C74.3693 68.7783 74.17 69.0801 74.0177 69.5137ZM77.3224 71.5176C77.006 71.623 76.505 71.749 75.8195 71.8955C75.1339 72.042 74.6857 72.1855 74.4747 72.3262C74.1525 72.5547 73.9913 72.8447 73.9913 73.1963C73.9913 73.542 74.1202 73.8408 74.378 74.0928C74.6359 74.3447 74.964 74.4707 75.3624 74.4707C75.8077 74.4707 76.2325 74.3242 76.6368 74.0312C76.9357 73.8086 77.132 73.5361 77.2257 73.2139C77.2902 73.0029 77.3224 72.6016 77.3224 72.0098V71.5176ZM91.7702 69.4258L89.3356 69.8652C89.2536 69.3789 89.0661 69.0127 88.7731 68.7666C88.486 68.5205 88.111 68.3975 87.6481 68.3975C87.0329 68.3975 86.5407 68.6113 86.1716 69.0391C85.8083 69.4609 85.6266 70.1699 85.6266 71.166C85.6266 72.2734 85.8112 73.0557 86.1804 73.5127C86.5554 73.9697 87.0563 74.1982 87.6833 74.1982C88.152 74.1982 88.5358 74.0664 88.8346 73.8027C89.1335 73.5332 89.3444 73.0732 89.4675 72.4229L91.8932 72.8359C91.6413 73.9492 91.1579 74.79 90.443 75.3584C89.7282 75.9268 88.7702 76.2109 87.569 76.2109C86.2038 76.2109 85.1139 75.7803 84.2995 74.9189C83.4909 74.0576 83.0866 72.8652 83.0866 71.3418C83.0866 69.8008 83.4938 68.6025 84.3083 67.7471C85.1227 66.8857 86.2243 66.4551 87.613 66.4551C88.7497 66.4551 89.652 66.7012 90.32 67.1934C90.9938 67.6797 91.4772 68.4238 91.7702 69.4258ZM95.0032 76V63.1152H97.4729V69.9531L100.364 66.666H103.406L100.215 70.0762L103.634 76H100.971L98.6243 71.8076L97.4729 73.0117V76H95.0032ZM105.68 73.3369L108.159 72.959C108.264 73.4395 108.478 73.8057 108.801 74.0576C109.123 74.3037 109.574 74.4268 110.154 74.4268C110.793 74.4268 111.273 74.3096 111.596 74.0752C111.812 73.9111 111.921 73.6914 111.921 73.416C111.921 73.2285 111.862 73.0732 111.745 72.9502C111.622 72.833 111.346 72.7246 110.919 72.625C108.927 72.1855 107.664 71.7842 107.131 71.4209C106.392 70.917 106.023 70.2168 106.023 69.3203C106.023 68.5117 106.343 67.832 106.981 67.2812C107.62 66.7305 108.61 66.4551 109.952 66.4551C111.229 66.4551 112.179 66.6631 112.8 67.0791C113.421 67.4951 113.848 68.1104 114.083 68.9248L111.754 69.3555C111.654 68.9922 111.464 68.7139 111.182 68.5205C110.907 68.3271 110.512 68.2305 109.996 68.2305C109.346 68.2305 108.88 68.3213 108.598 68.5029C108.411 68.6318 108.317 68.7988 108.317 69.0039C108.317 69.1797 108.399 69.3291 108.563 69.4521C108.786 69.6162 109.554 69.8477 110.866 70.1465C112.184 70.4453 113.104 70.8115 113.626 71.2451C114.141 71.6846 114.399 72.2969 114.399 73.082C114.399 73.9375 114.042 74.6729 113.327 75.2881C112.612 75.9033 111.554 76.2109 110.154 76.2109C108.883 76.2109 107.875 75.9531 107.131 75.4375C106.392 74.9219 105.909 74.2217 105.68 73.3369Z" fill="#ED9200"/>
<path d="M51.3799 53V40.2207H53.9814V50.8291H60.4502V53H51.3799ZM63.7359 42.4004V40.1152H66.2056V42.4004H63.7359ZM63.7359 53V43.666H66.2056V53H63.7359ZM70.0978 53V40.1152H72.5675V46.9531L75.4591 43.666H78.5001L75.3097 47.0762L78.7286 53H76.0655L73.7189 48.8076L72.5675 50.0117V53H70.0978ZM87.0505 50.0293L89.5114 50.4424C89.195 51.3447 88.694 52.0332 88.0085 52.5078C87.3288 52.9766 86.4762 53.2109 85.4509 53.2109C83.8278 53.2109 82.6266 52.6807 81.8473 51.6201C81.2321 50.7705 80.9245 49.6982 80.9245 48.4033C80.9245 46.8564 81.3288 45.6465 82.1374 44.7734C82.946 43.8945 83.9684 43.4551 85.2048 43.4551C86.5934 43.4551 87.6891 43.915 88.4919 44.835C89.2946 45.749 89.6784 47.1523 89.6432 49.0449H83.4557C83.4733 49.7773 83.6725 50.3486 84.0534 50.7588C84.4343 51.1631 84.9089 51.3652 85.4772 51.3652C85.8639 51.3652 86.1891 51.2598 86.4528 51.0488C86.7165 50.8379 86.9157 50.498 87.0505 50.0293ZM87.1911 47.5332C87.1735 46.8184 86.9889 46.2764 86.6374 45.9072C86.2858 45.5322 85.8581 45.3447 85.3542 45.3447C84.8151 45.3447 84.3698 45.541 84.0182 45.9336C83.6667 46.3262 83.4938 46.8594 83.4997 47.5332H87.1911ZM92.2346 50.3369L94.7131 49.959C94.8186 50.4395 95.0325 50.8057 95.3547 51.0576C95.677 51.3037 96.1282 51.4268 96.7082 51.4268C97.3469 51.4268 97.8274 51.3096 98.1497 51.0752C98.3664 50.9111 98.4748 50.6914 98.4748 50.416C98.4748 50.2285 98.4163 50.0732 98.2991 49.9502C98.176 49.833 97.9006 49.7246 97.4729 49.625C95.4807 49.1855 94.218 48.7842 93.6848 48.4209C92.9465 47.917 92.5774 47.2168 92.5774 46.3203C92.5774 45.5117 92.8967 44.832 93.5354 44.2812C94.1741 43.7305 95.1643 43.4551 96.5061 43.4551C97.7834 43.4551 98.7327 43.6631 99.3538 44.0791C99.9748 44.4951 100.403 45.1104 100.637 45.9248L98.3079 46.3555C98.2082 45.9922 98.0178 45.7139 97.7366 45.5205C97.4612 45.3271 97.0657 45.2305 96.55 45.2305C95.8997 45.2305 95.4338 45.3213 95.1526 45.5029C94.9651 45.6318 94.8713 45.7988 94.8713 46.0039C94.8713 46.1797 94.9534 46.3291 95.1174 46.4521C95.3401 46.6162 96.1077 46.8477 97.4202 47.1465C98.7385 47.4453 99.6584 47.8115 100.18 48.2451C100.696 48.6846 100.953 49.2969 100.953 50.082C100.953 50.9375 100.596 51.6729 99.8811 52.2881C99.1663 52.9033 98.1086 53.2109 96.7082 53.2109C95.4368 53.2109 94.4289 52.9531 93.6848 52.4375C92.9465 51.9219 92.4631 51.2217 92.2346 50.3369Z" fill="#FDB644"/>
<rect x="16" y="17" width="22" height="3" fill="#ED9200"/>
<rect x="20" y="27" width="14" height="3" fill="#FDB644"/>
<rect x="16" y="37" width="22" height="3" fill="#ED9200"/>
<defs>
<linearGradient id="paint0_linear_195_130" x1="128.448" y1="2.78372e-06" x2="38.0589" y2="119.172" gradientUnits="userSpaceOnUse">
<stop stop-color="#ED9200"/>
<stop offset="1" stop-color="#CFAF7C"/>
</linearGradient>
</defs>
</svg>
